<svg width="40" height="40" viewBox="0 0 40 40" fill="none" xmlns="http://www.w3.org/2000/svg">
  <path d="M37.1806 39.3124C38.3577 39.3124 39.3123 38.3579 39.3123 37.1805V2.8194C39.3123 1.64186 38.3579 0.687622 37.1806 0.687622H2.81929C1.64174 0.687622 0.6875 1.64186 0.6875 2.8194V37.1805C0.6875 38.3577 1.64159 39.3124 2.81929 39.3124H37.1806Z" fill="#3C5A99"/>
  <path d="M27.3379 39.3124V24.3548H32.3585L33.1103 18.5255H27.3379V14.8039C27.3379 13.1162 27.8066 11.9661 30.2267 11.9661L33.3135 11.9647V6.75099C32.7797 6.67995 30.9473 6.52124 28.8155 6.52124C24.3651 6.52124 21.3182 9.23781 21.3182 14.2266V18.5255H16.2847V24.3548H21.3182V39.3124H27.3379Z" fill="white"/>
</svg>
