<svg width="40" height="40" viewBox="0 0 40 40" fill="none" xmlns="http://www.w3.org/2000/svg">
  <g clip-path="url(#clip0)">
    <path d="M39.2089 20.46C39.2089 19.1005 39.0987 17.7337 38.8635 16.3962H19.9995V24.0976H30.802C30.3538 26.5814 28.9134 28.7787 26.8044 30.1749V35.172H33.2491C37.0337 31.6887 39.2089 26.5447 39.2089 20.46Z" fill="#4285F4"/>
    <path d="M19.9993 40.0001C25.3932 40.0001 29.942 38.229 33.2563 35.172L26.8115 30.1749C25.0185 31.3948 22.7036 32.0856 20.0067 32.0856C14.7892 32.0856 10.3653 28.5655 8.77796 23.833H2.12744V28.9844C5.52251 35.7378 12.4376 40.0001 19.9993 40.0001Z" fill="#34A853"/>
    <path d="M8.7706 23.833C7.93286 21.3491 7.93286 18.6595 8.7706 16.1757V11.0243H2.12743C-0.709144 16.6754 -0.709144 23.3333 2.12743 28.9844L8.7706 23.833Z" fill="#FBBC04"/>
    <path d="M19.9993 7.91583C22.8506 7.87174 25.6063 8.94464 27.6713 10.9141L33.3812 5.20419C29.7657 1.80911 24.967 -0.0574414 19.9993 0.00134773C12.4376 0.00134773 5.52251 4.26356 2.12744 11.0243L8.77061 16.1757C10.3506 11.4358 14.7818 7.91583 19.9993 7.91583Z" fill="#EA4335"/>
  </g>
  <defs>
    <clipPath id="clip0">
      <path d="M0 0H40V40H0V0Z" fill="white"/>
    </clipPath>
  </defs>
</svg>
