<svg width="40" height="40" viewBox="0 0 40 40" fill="none" xmlns="http://www.w3.org/2000/svg">
  <path fill-rule="evenodd" clip-rule="evenodd" d="M13.8667 0C25.0667 0 14.9333 0 26.1333 0C37.3333 0 40 2.66667 40 13.8667C40 25.0667 40 14.9333 40 26.1333C40 37.3333 37.3333 40 26.1333 40C14.9333 40 25.0667 40 13.8667 40C2.66667 40 0 37.3333 0 26.1333C0 14.9333 0 20.1209 0 13.8667C0 2.66667 2.66667 0 13.8667 0Z" fill="#5181B8"/>
  <path fill-rule="evenodd" clip-rule="evenodd" d="M32.7572 13.7805C32.9425 13.1625 32.7572 12.7084 31.8752 12.7084H28.9585C28.2169 12.7084 27.875 13.1007 27.6896 13.5332C27.6896 13.5332 26.2064 17.1486 24.1052 19.497C23.4254 20.1767 23.1164 20.393 22.7455 20.393C22.5602 20.393 22.2918 20.1767 22.2918 19.5588V13.7805C22.2918 13.0389 22.0766 12.7084 21.4585 12.7084H16.8752C16.4117 12.7084 16.133 13.0526 16.133 13.3788C16.133 14.0818 17.1836 14.2439 17.2918 16.2216V20.5167C17.2918 21.4584 17.1218 21.6291 16.751 21.6291C15.7622 21.6291 13.357 17.9976 11.9305 13.8423C11.651 13.0346 11.3706 12.7084 10.6252 12.7084H7.70851C6.87517 12.7084 6.7085 13.1007 6.7085 13.5332C6.7085 14.3058 7.69731 18.1374 11.3126 23.205C13.7227 26.6657 17.1185 28.5417 20.2085 28.5417C22.0625 28.5417 22.2918 28.125 22.2918 27.4073V24.7917C22.2918 23.9584 22.4675 23.7921 23.0546 23.7921C23.4872 23.7921 24.2288 24.0084 25.9592 25.677C27.9368 27.6545 28.2628 28.5417 29.3752 28.5417H32.2919C33.1252 28.5417 33.5419 28.125 33.3015 27.3028C33.0385 26.4833 32.0943 25.2942 30.8414 23.8848C30.1616 23.0814 29.1419 22.2162 28.8329 21.7835C28.4003 21.2274 28.5239 20.9801 28.8329 20.4858C28.8329 20.4858 32.3864 15.48 32.7572 13.7805Z" fill="white"/>
</svg>
