<svg width="108" height="40" viewBox="0 0 108 40" fill="none" xmlns="http://www.w3.org/2000/svg">
  <path d="M23.5949 0L0.5 40H46.6879L23.5949 0Z" fill="#5A5052"/>
  <path d="M21.3874 29.4845C20.2469 29.1625 19.3882 28.6329 18.8114 27.8958C18.2347 27.1587 17.9463 26.1837 17.9463 24.9707V23.0483C17.9463 21.481 17.2635 20.698 15.8979 20.6993V19.2949C17.2635 19.2949 17.9463 18.519 17.9463 16.9672V14.9459C17.954 13.7665 18.2424 12.8148 18.8114 12.0906C19.3804 11.3664 20.2391 10.8394 21.3874 10.5097L21.7541 11.6212C20.4079 12.0544 19.7348 13.1788 19.7348 14.9944V16.9478C19.7348 18.4103 19.1968 19.4281 18.1209 20.001C19.1968 20.5803 19.7348 21.6084 19.7348 23.0852V25.0754C19.7542 26.8484 20.4273 27.9476 21.7541 28.373L21.3874 29.4845Z" fill="#EDDED3"/>
  <path d="M32.3906 26C32.2865 25.7917 32.2018 25.4206 32.1367 24.8867C31.2969 25.7591 30.2943 26.1953 29.1289 26.1953C28.0872 26.1953 27.2311 25.9023 26.5605 25.3164C25.8965 24.724 25.5645 23.9753 25.5645 23.0703C25.5645 21.9701 25.9811 21.1172 26.8145 20.5117C27.6543 19.8997 28.8327 19.5938 30.3496 19.5938H32.1074V18.7637C32.1074 18.1322 31.9186 17.6309 31.541 17.2598C31.1634 16.8822 30.6068 16.6934 29.8711 16.6934C29.2266 16.6934 28.6862 16.8561 28.25 17.1816C27.8138 17.5072 27.5957 17.901 27.5957 18.3633H25.7793C25.7793 17.8359 25.9648 17.3281 26.3359 16.8398C26.7135 16.3451 27.2214 15.9544 27.8594 15.668C28.5039 15.3815 29.2103 15.2383 29.9785 15.2383C31.196 15.2383 32.1497 15.5443 32.8398 16.1562C33.5299 16.7617 33.888 17.5983 33.9141 18.666V23.5293C33.9141 24.4993 34.0378 25.2708 34.2852 25.8438V26H32.3906ZM29.3926 24.623C29.959 24.623 30.4961 24.4766 31.0039 24.1836C31.5117 23.8906 31.8796 23.5098 32.1074 23.041V20.873H30.6914C28.4779 20.873 27.3711 21.5208 27.3711 22.8164C27.3711 23.3828 27.5599 23.8255 27.9375 24.1445C28.3151 24.4635 28.8001 24.623 29.3926 24.623Z" fill="#EDDED3"/>
  <path d="M41.5309 26.1953C40.0986 26.1953 38.9332 25.7266 38.0348 24.7891C37.1363 23.8451 36.6871 22.5853 36.6871 21.0098V20.6777C36.6871 19.6296 36.8857 18.6953 37.2828 17.875C37.6865 17.0482 38.2464 16.4036 38.9625 15.9414C39.6852 15.4727 40.4664 15.2383 41.3062 15.2383C42.6799 15.2383 43.7477 15.6908 44.5094 16.5957C45.2711 17.5007 45.652 18.7962 45.652 20.4824V21.2344H38.4937C38.5198 22.276 38.8225 23.1191 39.402 23.7637C39.9879 24.4017 40.7301 24.7207 41.6285 24.7207C42.2665 24.7207 42.8069 24.5905 43.2496 24.3301C43.6923 24.0697 44.0797 23.7246 44.4117 23.2949L45.5152 24.1543C44.6298 25.515 43.3017 26.1953 41.5309 26.1953ZM41.3062 16.7227C40.5771 16.7227 39.9651 16.9896 39.4703 17.5234C38.9755 18.0508 38.6695 18.793 38.5523 19.75H43.8453V19.6133C43.7932 18.6953 43.5458 17.9857 43.1031 17.4844C42.6604 16.9766 42.0615 16.7227 41.3062 16.7227Z" fill="#EDDED3"/>
  <path d="M53.259 17.0547C52.9855 17.0091 52.6893 16.9863 52.3703 16.9863C51.1854 16.9863 50.3814 17.4909 49.9582 18.5V26H48.1516V15.4336H49.9094L49.9387 16.6543C50.5311 15.7103 51.371 15.2383 52.4582 15.2383C52.8098 15.2383 53.0767 15.2839 53.259 15.375V17.0547Z" fill="#EDDED3"/>
  <path d="M59.5184 26.1953C58.0861 26.1953 56.9207 25.7266 56.0223 24.7891C55.1238 23.8451 54.6746 22.5853 54.6746 21.0098V20.6777C54.6746 19.6296 54.8732 18.6953 55.2703 17.875C55.674 17.0482 56.2339 16.4036 56.95 15.9414C57.6727 15.4727 58.4539 15.2383 59.2937 15.2383C60.6674 15.2383 61.7352 15.6908 62.4969 16.5957C63.2586 17.5007 63.6395 18.7962 63.6395 20.4824V21.2344H56.4812C56.5073 22.276 56.81 23.1191 57.3895 23.7637C57.9754 24.4017 58.7176 24.7207 59.616 24.7207C60.254 24.7207 60.7944 24.5905 61.2371 24.3301C61.6798 24.0697 62.0672 23.7246 62.3992 23.2949L63.5027 24.1543C62.6173 25.515 61.2892 26.1953 59.5184 26.1953ZM59.2937 16.7227C58.5646 16.7227 57.9526 16.9896 57.4578 17.5234C56.963 18.0508 56.657 18.793 56.5398 19.75H61.8328V19.6133C61.7807 18.6953 61.5333 17.9857 61.0906 17.4844C60.6479 16.9766 60.049 16.7227 59.2937 16.7227Z" fill="#EDDED3"/>
  <path d="M65.6996 20.6289C65.6996 19.0078 66.0837 17.7057 66.852 16.7227C67.6202 15.7331 68.626 15.2383 69.8695 15.2383C71.1065 15.2383 72.0863 15.6615 72.809 16.5078V11H74.6156V26H72.9555L72.8676 24.8672C72.1449 25.7526 71.1391 26.1953 69.85 26.1953C68.626 26.1953 67.6267 25.694 66.852 24.6914C66.0837 23.6888 65.6996 22.3802 65.6996 20.7656V20.6289ZM67.5062 20.834C67.5062 22.0319 67.7536 22.9694 68.2484 23.6465C68.7432 24.3236 69.4268 24.6621 70.2992 24.6621C71.445 24.6621 72.2816 24.1478 72.809 23.1191V18.2656C72.2686 17.2695 71.4385 16.7715 70.3187 16.7715C69.4333 16.7715 68.7432 17.1133 68.2484 17.7969C67.7536 18.4805 67.5062 19.4928 67.5062 20.834Z" fill="#EDDED3"/>
  <path d="M84.3516 26C84.2474 25.7917 84.1628 25.4206 84.0977 24.8867C83.2578 25.7591 82.2552 26.1953 81.0898 26.1953C80.0482 26.1953 79.1921 25.9023 78.5215 25.3164C77.8574 24.724 77.5254 23.9753 77.5254 23.0703C77.5254 21.9701 77.9421 21.1172 78.7754 20.5117C79.6152 19.8997 80.7936 19.5938 82.3105 19.5938H84.0684V18.7637C84.0684 18.1322 83.8796 17.6309 83.5019 17.2598C83.1243 16.8822 82.5677 16.6934 81.832 16.6934C81.1875 16.6934 80.6471 16.8561 80.2109 17.1816C79.7747 17.5072 79.5566 17.901 79.5566 18.3633H77.7402C77.7402 17.8359 77.9258 17.3281 78.2969 16.8398C78.6745 16.3451 79.1823 15.9544 79.8203 15.668C80.4648 15.3815 81.1712 15.2383 81.9394 15.2383C83.1569 15.2383 84.1107 15.5443 84.8008 16.1562C85.4909 16.7617 85.849 17.5983 85.875 18.666V23.5293C85.875 24.4993 85.9987 25.2708 86.2461 25.8438V26H84.3516ZM81.3535 24.623C81.9199 24.623 82.457 24.4766 82.9648 24.1836C83.4727 23.8906 83.8405 23.5098 84.0684 23.041V20.873H82.6523C80.4388 20.873 79.332 21.5208 79.332 22.8164C79.332 23.3828 79.5208 23.8255 79.8984 24.1445C80.276 24.4635 80.7611 24.623 81.3535 24.623Z" fill="#EDDED3"/>
  <path d="M90.816 15.4336L90.8746 16.7617C91.6819 15.7461 92.7366 15.2383 94.0387 15.2383C96.2717 15.2383 97.398 16.498 97.4176 19.0176V26H95.6109V19.0078C95.6044 18.2461 95.4286 17.6829 95.0836 17.3184C94.745 16.9538 94.2144 16.7715 93.4918 16.7715C92.9059 16.7715 92.3915 16.9277 91.9488 17.2402C91.5061 17.5527 91.1611 17.9629 90.9137 18.4707V26H89.107V15.4336H90.816Z" fill="#EDDED3"/>
  <path d="M101.794 28.3711C103.102 27.9521 103.778 26.8859 103.823 25.1724V23.0387C103.823 21.5489 104.405 20.5338 105.569 19.9932C104.405 19.4656 103.823 18.4511 103.823 16.9497V14.9944C103.823 13.1775 103.15 12.0531 101.804 11.6212L102.182 10.5097C103.323 10.8317 104.18 11.3554 104.754 12.0809C105.329 12.8064 105.618 13.7646 105.623 14.9556V16.9846C105.623 18.5248 106.306 19.2949 107.672 19.2949V20.6974C106.306 20.6974 105.623 21.4804 105.623 23.0464V24.9978C105.623 26.2108 105.332 27.1807 104.749 27.9075C104.165 28.6342 103.31 29.1599 102.182 29.4845L101.794 28.3711Z" fill="#EDDED3"/>
</svg>
