<svg width="136" height="100" viewBox="0 0 136 100" fill="none" xmlns="http://www.w3.org/2000/svg">
  <g clip-path="url(#clip0)">
    <path d="M57.7373 0L0 100H115.47L57.7373 0Z" fill="#5A5052"/>
    <path d="M52.2185 73.7113C49.367 72.9063 47.2204 71.5824 45.7785 69.7396C44.3366 67.8968 43.6156 65.4592 43.6156 62.4267V57.6209C43.6156 53.7026 41.9086 51.745 38.4946 51.7482V48.2372C41.9086 48.2372 43.6156 46.2975 43.6156 42.4179V37.3648C43.635 34.4164 44.356 32.0369 45.7785 30.2265C47.201 28.416 49.3476 27.0986 52.2185 26.2742L53.135 29.0529C49.7695 30.136 48.0868 32.947 48.0868 37.4861V42.3694C48.0868 46.0259 46.7419 48.5702 44.0521 50.0024C46.7419 51.4508 48.0868 54.021 48.0868 57.713V62.6885C48.1353 67.1209 49.818 69.8689 53.135 70.9326L52.2185 73.7113Z" fill="#EDDED3"/>
    <path d="M79.5305 64.8659C79.1824 63.9832 78.9698 63.0529 78.9 62.1066C77.957 63.1386 76.8072 63.9604 75.5255 64.5185C74.2438 65.0766 72.8589 65.3586 71.461 65.346C68.8747 65.346 66.7603 64.617 65.118 63.1589C64.3189 62.4773 63.6819 61.6261 63.2532 60.6672C62.8245 59.7084 62.615 58.666 62.6399 57.616C62.6399 54.8906 63.6745 52.7763 65.7436 51.273C67.8126 49.7697 70.7223 49.0164 74.4725 49.0131H78.837V46.957C78.8707 46.2719 78.7637 45.5871 78.5227 44.9449C78.2816 44.3027 77.9117 43.7167 77.4355 43.2229C76.5044 42.2983 75.1272 41.836 73.3038 41.836C71.8706 41.7867 70.4611 42.2111 69.2933 43.0435C68.8072 43.3603 68.4056 43.7908 68.1233 44.2979C67.8411 44.8049 67.6867 45.373 67.6736 45.9532H63.1831C63.2094 44.5727 63.6977 43.2409 64.57 42.1706C65.5573 40.904 66.8506 39.9094 68.3283 39.2803C69.9775 38.5594 71.7611 38.1974 73.5608 38.2183C76.5707 38.2183 78.9308 38.97 80.641 40.4733C82.3512 41.9766 83.2371 44.0522 83.2985 46.7V58.7314C83.2985 61.1302 83.604 63.0393 84.215 64.4586V64.8465L79.5305 64.8659ZM72.1109 61.4713C73.5126 61.4704 74.8887 61.0954 76.0971 60.385C77.2735 59.7423 78.226 58.756 78.8273 57.5578V52.1798H75.326C69.83 52.1798 67.0917 53.7817 67.1111 56.9856C67.079 57.6042 67.1886 58.2219 67.4315 58.7917C67.6744 59.3615 68.0441 59.8683 68.5126 60.2735C69.5286 61.0916 70.8076 61.5122 72.1109 61.4568V61.4713Z" fill="#EDDED3"/>
    <path d="M102.493 65.346C98.9364 65.346 96.0526 64.1821 93.8413 61.8544C91.6299 59.5267 90.5194 56.4134 90.5097 52.5144V51.6949C90.4677 49.2956 90.9753 46.9185 91.9937 44.7456C92.907 42.7961 94.3463 41.1401 96.1496 39.9641C97.8656 38.8307 99.8785 38.23 101.935 38.2377C105.336 38.2377 107.979 39.3563 109.864 41.5935C111.749 43.8307 112.691 47.0362 112.691 51.2099V53.0721H94.9761C95.0439 55.6585 95.7972 57.7405 97.2359 59.3182C97.9237 60.0917 98.7723 60.7056 99.7222 61.1169C100.672 61.5282 101.7 61.7269 102.735 61.6992C104.135 61.7426 105.52 61.4075 106.746 60.7293C107.861 60.0704 108.838 59.2007 109.621 58.1688L112.352 60.2977C110.16 63.6632 106.873 65.346 102.493 65.346ZM101.935 41.9087C101.081 41.8918 100.234 42.0588 99.4509 42.3986C98.6677 42.7383 97.9668 43.2428 97.3959 43.8776C96.1706 45.1902 95.4125 47.0313 95.1215 49.4011H108.215V49.0616C108.084 46.7872 107.473 45.0318 106.377 43.7806C105.822 43.1587 105.135 42.668 104.367 42.3443C103.599 42.0205 102.768 41.8717 101.935 41.9087Z" fill="#EDDED3"/>
    <path d="M121.236 70.9277C124.504 69.8802 126.195 67.2147 126.308 62.931V57.5966C126.308 53.8723 127.763 51.3344 130.673 49.983C127.763 48.664 126.308 46.1277 126.308 42.3743V37.4861C126.308 32.9438 124.625 30.1327 121.26 29.0529L122.205 26.2742C125.057 27.0792 127.2 28.3885 128.636 30.2022C130.071 32.0159 130.795 34.4115 130.808 37.3891V42.4616C130.808 46.312 132.515 48.2372 135.929 48.2372V51.7434C132.515 51.7434 130.808 53.7009 130.808 57.616V62.4946C130.808 65.5271 130.079 67.9518 128.621 69.7687C127.163 71.5856 125.025 72.8998 122.205 73.7113L121.236 70.9277Z" fill="#EDDED3"/>
    <path d="M62.7129 94.5638C62.6172 94.249 62.565 93.9227 62.5577 93.5939C62.2755 93.9624 61.9053 94.2542 61.4811 94.4425C61.0458 94.6415 60.5727 94.7441 60.0942 94.7432C59.4742 94.7721 58.8667 94.562 58.3969 94.1564C58.1906 93.9749 58.0262 93.7509 57.9148 93.4997C57.8035 93.2486 57.7479 92.9763 57.7519 92.7016C57.7432 92.3698 57.8197 92.0412 57.9742 91.7475C58.1288 91.4537 58.3561 91.2045 58.6345 91.0237C59.3712 90.5701 60.2294 90.3535 61.0932 90.403H62.548V89.5786C62.5596 89.352 62.5222 89.1256 62.4386 88.9147C62.3549 88.7039 62.2268 88.5135 62.063 88.3565C61.6725 88.0331 61.1721 87.8732 60.6664 87.9104C60.1674 87.8899 59.6764 88.0405 59.2746 88.3371C59.1078 88.4534 58.9711 88.6077 58.8758 88.7874C58.7805 88.967 58.7294 89.1667 58.7266 89.37H57.9216C57.9268 89.0742 58.0025 88.7839 58.1425 88.5232C58.2825 88.2626 58.4828 88.0392 58.7266 87.8716C59.2924 87.4366 59.9919 87.212 60.7052 87.2363C61.3966 87.1956 62.0786 87.4115 62.6207 87.8425C62.8574 88.0547 63.0448 88.3162 63.1696 88.6086C63.2944 88.901 63.3537 89.2172 63.3433 89.5349V92.9732C63.3162 93.5079 63.392 94.0429 63.5664 94.5492V94.5638H62.7129ZM60.1863 93.9867C60.6981 93.9971 61.2025 93.8626 61.6411 93.5987C62.0494 93.3557 62.3716 92.9912 62.5625 92.5561V90.9607H61.1077C60.4542 90.9343 59.8058 91.0851 59.231 91.3971C59.0218 91.5125 58.8481 91.6828 58.7285 91.8896C58.6089 92.0963 58.5479 92.3318 58.552 92.5707C58.5478 92.7624 58.586 92.9527 58.664 93.128C58.742 93.3032 58.8577 93.459 59.003 93.5842C59.3297 93.8697 59.7527 94.0205 60.1863 94.0061V93.9867Z" fill="#EDDED3"/>
    <path d="M68.6728 94.719C68.0837 94.7246 67.5045 94.5668 66.9997 94.2631C66.4994 93.956 66.096 93.5139 65.8359 92.9877C65.5509 92.421 65.4078 91.7937 65.4188 91.1595V90.8734C65.4093 90.2223 65.5469 89.5774 65.8213 88.9869C66.0711 88.4513 66.4638 87.9949 66.9561 87.6679C67.4188 87.3512 67.9666 87.1821 68.5273 87.1829C68.9218 87.1663 69.315 87.2387 69.6777 87.3949C70.0404 87.551 70.3632 87.7869 70.6222 88.0849C71.1731 88.7857 71.449 89.6634 71.3981 90.5533V90.9994H66.2141V91.1692C66.189 91.9183 66.4411 92.6504 66.9221 93.2253C67.1383 93.4883 67.4111 93.699 67.7201 93.8418C68.0291 93.9845 68.3664 94.0556 68.7067 94.0497C69.0997 94.058 69.4894 93.9768 69.8463 93.8121C70.1984 93.6348 70.504 93.3773 70.7386 93.0605L71.2236 93.4436C70.9436 93.8572 70.5619 94.1918 70.1151 94.4152C69.6684 94.6386 69.1717 94.7432 68.6728 94.719ZM68.5273 87.8716C68.2399 87.8665 67.9549 87.9232 67.6913 88.0378C67.4278 88.1525 67.192 88.3223 66.9997 88.5359C66.559 89.032 66.2932 89.6589 66.2432 90.3205H70.6077V90.2332C70.6163 89.6132 70.4049 89.0101 70.0112 88.5311C69.8309 88.3148 69.6033 88.1429 69.346 88.0286C69.0887 87.9142 68.8086 87.8605 68.5273 87.8716Z" fill="#EDDED3"/>
    <path d="M76.6888 88.0074C76.5098 87.9733 76.3279 87.9571 76.1457 87.9589C75.6865 87.9458 75.2372 88.0933 74.8751 88.3759C74.5034 88.6934 74.2433 89.1217 74.1332 89.598V94.5638H73.333V87.2897H74.1186V88.4438C74.2893 88.0474 74.5764 87.7123 74.9418 87.4828C75.3073 87.2533 75.7339 87.1403 76.1651 87.1587C76.3454 87.1514 76.5253 87.1811 76.6936 87.246L76.6888 88.0074Z" fill="#EDDED3"/>
    <path d="M78.2844 85.2238C78.2805 85.0819 78.3328 84.9442 78.4299 84.8407C78.4815 84.7866 78.5442 84.7443 78.6136 84.7167C78.6831 84.6891 78.7577 84.6768 78.8324 84.6807C78.9077 84.6773 78.9829 84.6898 79.053 84.7174C79.1232 84.745 79.1868 84.787 79.2397 84.8407C79.3381 84.9437 79.3921 85.0813 79.3901 85.2238C79.3919 85.3648 79.3379 85.5008 79.2397 85.6021C79.1859 85.6542 79.122 85.6948 79.052 85.7215C78.982 85.7482 78.9072 85.7603 78.8324 85.7572C78.7582 85.7608 78.684 85.7489 78.6147 85.7221C78.5454 85.6954 78.4825 85.6545 78.4299 85.6021C78.3819 85.5517 78.3444 85.4923 78.3194 85.4274C78.2945 85.3625 78.2826 85.2933 78.2844 85.2238ZM79.23 94.5832H78.425V87.3091H79.23V94.5832Z" fill="#EDDED3"/>
    <path d="M81.4704 90.8831C81.4217 89.9281 81.6856 88.9832 82.222 88.1917C82.4552 87.8687 82.7643 87.6082 83.1221 87.4331C83.4799 87.258 83.8753 87.1738 84.2733 87.1878C84.7156 87.1678 85.1553 87.2643 85.5485 87.4677C85.9417 87.6711 86.2746 87.9743 86.5138 88.3468V84.2733H87.2897V94.5638H86.538L86.5041 93.5939C86.2503 93.955 85.9088 94.2455 85.5118 94.4381C85.1147 94.6307 84.6752 94.719 84.2345 94.6947C83.8405 94.7029 83.4504 94.6148 83.098 94.4382C82.7456 94.2616 82.4416 94.0018 82.2123 93.6812C81.6612 92.8831 81.3916 91.9242 81.4461 90.9558L81.4704 90.8831ZM82.2802 91.0237C82.2376 91.7942 82.4322 92.5592 82.8379 93.2157C83.0082 93.4739 83.2423 93.6837 83.5176 93.8248C83.7929 93.9658 84.1 94.0333 84.4091 94.0207C84.8521 94.0459 85.292 93.9336 85.6687 93.6992C86.0455 93.4648 86.3406 93.1198 86.5138 92.7113V89.3167C86.3614 88.889 86.0765 88.5211 85.7006 88.2664C85.3247 88.0118 84.8774 87.8836 84.4237 87.9007C84.1143 87.8881 83.8068 87.9545 83.5302 88.0937C83.2537 88.2328 83.0171 88.4401 82.8427 88.696C82.4217 89.3965 82.2223 90.2079 82.2705 91.0237H82.2802Z" fill="#EDDED3"/>
    <path d="M94.3747 94.5638C94.2774 94.2345 94.2252 93.8936 94.2195 93.5503C93.9373 93.9188 93.5672 94.2106 93.143 94.3989C92.7079 94.5985 92.2347 94.7011 91.756 94.6996C91.1377 94.7272 90.5322 94.5173 90.0636 94.1128C89.8564 93.9318 89.6911 93.7079 89.5789 93.4568C89.4667 93.2056 89.4104 92.9331 89.4138 92.658C89.405 92.3262 89.4816 91.9976 89.6361 91.7039C89.7906 91.4101 90.018 91.1609 90.2963 90.9801C91.0333 90.5271 91.8913 90.3105 92.755 90.3594H94.2098V89.535C94.2214 89.3084 94.1841 89.082 94.1004 88.8711C94.0167 88.6603 93.8887 88.4699 93.7249 88.3129C93.3329 87.9887 92.8307 87.8288 92.3234 87.8668C91.826 87.8466 91.3366 87.9972 90.9365 88.2935C90.7685 88.409 90.6306 88.563 90.5344 88.7427C90.4383 88.9224 90.3865 89.1226 90.3836 89.3264H89.5786C89.5849 89.0308 89.6612 88.7409 89.8011 88.4805C89.941 88.22 90.1407 87.9964 90.3836 87.828C90.9513 87.393 91.6523 87.1685 92.3671 87.1927C93.0584 87.1525 93.7402 87.3683 94.2826 87.7989C94.5185 88.0117 94.7053 88.2733 94.8301 88.5656C94.9548 88.8578 95.0146 89.1737 95.0051 89.4913V92.9295C94.9795 93.4639 95.0535 93.9983 95.2234 94.5056V94.5638H94.3747ZM91.853 93.9867C92.3649 93.9974 92.8693 93.8629 93.3078 93.5988C93.7175 93.356 94.0413 92.9916 94.2341 92.5561V90.9607H92.7793C92.1242 90.9337 91.474 91.0845 90.8977 91.3971C90.6892 91.5134 90.5161 91.6838 90.3966 91.8904C90.2771 92.097 90.2156 92.332 90.2188 92.5707C90.2138 92.7654 90.2531 92.9586 90.3337 93.1359C90.4144 93.3132 90.5342 93.4698 90.6843 93.5939C91.0087 93.8725 91.4256 94.0195 91.853 94.0061V93.9867Z" fill="#EDDED3"/>
    <path d="M98.2882 87.3187L98.3173 88.5602C98.5654 88.139 98.9157 87.7871 99.3357 87.537C99.7463 87.3035 100.211 87.183 100.684 87.1878C101.004 87.1619 101.327 87.2072 101.628 87.3204C101.928 87.4335 102.201 87.6118 102.425 87.8425C102.845 88.4114 103.049 89.1107 103.002 89.8162V94.5638H102.202V89.8113C102.24 89.293 102.094 88.778 101.789 88.3565C101.623 88.1839 101.419 88.0508 101.195 87.9669C100.97 87.883 100.729 87.8504 100.49 87.8716C100.007 87.872 99.5392 88.0439 99.1708 88.3565C98.7756 88.6872 98.4815 89.1225 98.3222 89.6125V94.5638H97.5269V87.2896L98.2882 87.3187Z" fill="#EDDED3"/>
  </g>
  <defs>
    <clipPath id="clip0">
      <path d="M0 0H135.915V100H0V0Z" fill="white"/>
    </clipPath>
  </defs>
</svg>
