<svg width="136" height="100" viewBox="0 0 136 100" fill="none" xmlns="http://www.w3.org/2000/svg">
  <g clip-path="url(#clip0)">
    <path d="M57.7373 0L0 100H115.47L57.7373 0Z" fill="#EDDED3"/>
    <path d="M52.2185 73.7113C49.367 72.9063 47.2204 71.5824 45.7785 69.7396C44.3366 67.8968 43.6156 65.4591 43.6156 62.4266V57.6209C43.6156 53.7025 41.9086 51.745 38.4946 51.7482V48.2372C41.9086 48.2372 43.6156 46.2975 43.6156 42.4179V37.3648C43.635 34.4164 44.356 32.0369 45.7785 30.2265C47.201 28.416 49.3476 27.0986 52.2185 26.2742L53.135 29.0529C49.7695 30.1359 48.0868 32.947 48.0868 37.486V42.3694C48.0868 46.0259 46.7419 48.5702 44.0521 50.0024C46.7419 51.4508 48.0868 54.021 48.0868 57.713V62.6885C48.1353 67.1209 49.818 69.8689 53.135 70.9325L52.2185 73.7113Z" fill="#1D1D1B"/>
    <path d="M79.5307 64.8658C79.1826 63.9831 78.9701 63.0528 78.9003 62.1065C77.9573 63.1385 76.8075 63.9603 75.5258 64.5184C74.244 65.0766 72.8592 65.3585 71.4613 65.3459C68.8749 65.3459 66.7606 64.6169 65.1182 63.1588C64.3192 62.4772 63.6821 61.626 63.2535 60.6671C62.8248 59.7083 62.6153 58.666 62.6402 57.616C62.6402 54.8906 63.6747 52.7762 65.7438 51.2729C67.8129 49.7696 70.7225 49.0163 74.4728 49.0131H78.8372V46.9569C78.8709 46.2718 78.764 45.5871 78.5229 44.9449C78.2819 44.3027 77.9119 43.7166 77.4358 43.2229C76.5047 42.2982 75.1274 41.8359 73.3041 41.8359C71.8708 41.7866 70.4613 42.211 69.2936 43.0434C68.8074 43.3602 68.4058 43.7908 68.1236 44.2978C67.8414 44.8048 67.687 45.373 67.6739 45.9531H63.1833C63.2096 44.5726 63.6979 43.2408 64.5702 42.1705C65.5575 40.9039 66.8509 39.9093 68.3285 39.2803C69.9777 38.5594 71.7613 38.1974 73.5611 38.2183C76.571 38.2183 78.931 38.9699 80.6412 40.4732C82.3515 41.9766 83.2373 44.0521 83.2987 46.6999V58.7313C83.2987 61.1302 83.6042 63.0392 84.2153 64.4585V64.8464L79.5307 64.8658ZM72.1111 61.4712C73.5128 61.4704 74.8889 61.0954 76.0973 60.385C77.2738 59.7422 78.2262 58.7559 78.8275 57.5578V52.1798H75.3263C69.8303 52.1798 67.0919 53.7817 67.1113 56.9855C67.0793 57.6041 67.1888 58.2218 67.4317 58.7916C67.6746 59.3614 68.0444 59.8682 68.5128 60.2734C69.5288 61.0916 70.8078 61.5121 72.1111 61.4567V61.4712Z" fill="#1D1D1B"/>
    <path d="M102.493 65.346C98.9364 65.346 96.0526 64.1822 93.8413 61.8544C91.6299 59.5267 90.5194 56.4134 90.5097 52.5144V51.6949C90.4677 49.2956 90.9753 46.9185 91.9937 44.7457C92.907 42.7961 94.3463 41.1401 96.1496 39.9641C97.8656 38.8307 99.8785 38.23 101.935 38.2377C105.336 38.2377 107.979 39.3563 109.864 41.5935C111.749 43.8307 112.691 47.0362 112.691 51.2099V53.0721H94.9761C95.044 55.6585 95.7972 57.7405 97.2359 59.3182C97.9237 60.0917 98.7723 60.7056 99.7222 61.1169C100.672 61.5282 101.7 61.727 102.735 61.6993C104.135 61.7426 105.52 61.4076 106.746 60.7294C107.861 60.0704 108.838 59.2008 109.621 58.1689L112.352 60.2978C110.16 63.6633 106.873 65.346 102.493 65.346ZM101.935 41.9088C101.081 41.8918 100.234 42.0589 99.4509 42.3986C98.6677 42.7383 97.9668 43.2428 97.3959 43.8776C96.1706 45.1902 95.4125 47.0314 95.1215 49.4011H108.215V49.0617C108.084 46.7873 107.473 45.0318 106.377 43.7806C105.822 43.1587 105.135 42.6681 104.367 42.3443C103.599 42.0206 102.768 41.8718 101.935 41.9088Z" fill="black"/>
    <path d="M121.236 70.9277C124.504 69.8802 126.195 67.2146 126.308 62.931V57.5966C126.308 53.8723 127.763 51.3344 130.673 49.983C127.763 48.664 126.308 46.1277 126.308 42.3743V37.486C126.308 32.9437 124.626 30.1327 121.26 29.0529L122.206 26.2742C125.057 27.0792 127.201 28.3885 128.636 30.2022C130.072 32.0159 130.796 34.4115 130.809 37.3891V42.4616C130.809 46.312 132.516 48.2372 135.93 48.2372V51.7434C132.516 51.7434 130.809 53.7009 130.809 57.616V62.4945C130.809 65.527 130.08 67.9518 128.622 69.7687C127.163 71.5856 125.025 72.8998 122.206 73.7113L121.236 70.9277Z" fill="black"/>
    <path d="M62.7126 94.5638C62.617 94.249 62.5648 93.9227 62.5574 93.5939C62.2752 93.9624 61.9051 94.2542 61.4809 94.4425C61.0456 94.6415 60.5725 94.7441 60.0939 94.7432C59.4739 94.7721 58.8664 94.562 58.3966 94.1564C58.1904 93.9749 58.0259 93.7509 57.9146 93.4997C57.8032 93.2486 57.7476 92.9763 57.7516 92.7016C57.7429 92.3698 57.8195 92.0412 57.974 91.7475C58.1285 91.4537 58.3559 91.2045 58.6342 91.0237C59.371 90.5701 60.2292 90.3535 61.0929 90.403H62.5477V89.5786C62.5593 89.352 62.522 89.1256 62.4383 88.9147C62.3547 88.7039 62.2266 88.5135 62.0628 88.3565C61.6723 88.0331 61.1718 87.8732 60.6662 87.9104C60.1672 87.8899 59.6761 88.0405 59.2744 88.3371C59.1076 88.4534 58.9709 88.6077 58.8756 88.7874C58.7803 88.967 58.7291 89.1667 58.7264 89.37H57.9214C57.9265 89.0742 58.0022 88.7839 58.1423 88.5232C58.2823 88.2626 58.4825 88.0392 58.7264 87.8716C59.2922 87.4366 59.9917 87.212 60.705 87.2363C61.3963 87.1956 62.0784 87.4115 62.6205 87.8425C62.8572 88.0547 63.0445 88.3162 63.1693 88.6086C63.2942 88.901 63.3535 89.2172 63.343 89.5349V92.9732C63.316 93.5079 63.3917 94.0429 63.5661 94.5492V94.5638H62.7126ZM60.1861 93.9867C60.6979 93.9971 61.2022 93.8626 61.6409 93.5987C62.0492 93.3557 62.3713 92.9912 62.5623 92.5561V90.9607H61.1075C60.454 90.9343 59.8055 91.0851 59.2307 91.3971C59.0216 91.5125 58.8479 91.6828 58.7282 91.8896C58.6086 92.0963 58.5476 92.3318 58.5518 92.5707C58.5475 92.7624 58.5858 92.9527 58.6637 93.128C58.7417 93.3032 58.8575 93.459 59.0028 93.5842C59.3295 93.8697 59.7524 94.0205 60.1861 94.0061V93.9867Z" fill="#1D1D1B"/>
    <path d="M68.6725 94.719C68.0834 94.7247 67.5043 94.5669 66.9995 94.2632C66.4992 93.9561 66.0958 93.514 65.8356 92.9878C65.5507 92.4211 65.4076 91.7937 65.4186 91.1595V90.8734C65.409 90.2223 65.5466 89.5775 65.8211 88.987C66.0709 88.4514 66.4635 87.995 66.9558 87.668C67.4185 87.3512 67.9663 87.1821 68.527 87.183C68.9216 87.1663 69.3148 87.2388 69.6775 87.3949C70.0401 87.5511 70.363 87.7869 70.622 88.085C71.1728 88.7857 71.4487 89.6635 71.3979 90.5534V90.9995H66.2139V91.1692C66.1888 91.9184 66.4409 92.6505 66.9219 93.2254C67.138 93.4883 67.4108 93.6991 67.7198 93.8418C68.0289 93.9846 68.3661 94.0557 68.7065 94.0498C69.0994 94.0581 69.4892 93.9768 69.8461 93.8122C70.1982 93.6348 70.5038 93.3774 70.7384 93.0605L71.2233 93.4436C70.9434 93.8573 70.5616 94.1919 70.1149 94.4153C69.6681 94.6386 69.1714 94.7433 68.6725 94.719ZM68.527 87.8716C68.2397 87.8666 67.9546 87.9233 67.6911 88.0379C67.4276 88.1525 67.1917 88.3224 66.9995 88.536C66.5588 89.032 66.293 89.659 66.243 90.3206H70.6074V90.2333C70.616 89.6133 70.4047 89.0102 70.011 88.5311C69.8307 88.3149 69.6031 88.143 69.3458 88.0286C69.0885 87.9143 68.8084 87.8606 68.527 87.8716Z" fill="#1D1D1B"/>
    <path d="M76.6888 88.0073C76.5098 87.9733 76.3279 87.957 76.1457 87.9588C75.6865 87.9458 75.2372 88.0933 74.8751 88.3759C74.5034 88.6934 74.2433 89.1217 74.1332 89.5979V94.5638H73.333V87.2896H74.1186V88.4438C74.2893 88.0474 74.5764 87.7122 74.9418 87.4827C75.3073 87.2532 75.7339 87.1402 76.1651 87.1587C76.3454 87.1513 76.5253 87.181 76.6936 87.246L76.6888 88.0073Z" fill="#1D1D1B"/>
    <path d="M78.2844 85.2238C78.2805 85.0819 78.3328 84.9442 78.4299 84.8407C78.4815 84.7866 78.5442 84.7443 78.6136 84.7167C78.6831 84.689 78.7577 84.6767 78.8324 84.6806C78.9077 84.6773 78.9829 84.6898 79.053 84.7174C79.1232 84.745 79.1868 84.787 79.2397 84.8407C79.3381 84.9437 79.3921 85.0813 79.3901 85.2238C79.3919 85.3648 79.3379 85.5008 79.2397 85.602C79.1859 85.6542 79.122 85.6948 79.052 85.7215C78.982 85.7481 78.9072 85.7603 78.8324 85.7572C78.7582 85.7608 78.684 85.7488 78.6147 85.7221C78.5454 85.6954 78.4825 85.6545 78.4299 85.602C78.3819 85.5517 78.3444 85.4923 78.3194 85.4274C78.2945 85.3625 78.2826 85.2933 78.2844 85.2238ZM79.23 94.5832H78.425V87.309H79.23V94.5832Z" fill="#1D1D1B"/>
    <path d="M81.4701 90.8831C81.4214 89.9281 81.6853 88.9832 82.2218 88.1917C82.4549 87.8687 82.7641 87.6082 83.1218 87.4331C83.4796 87.258 83.875 87.1738 84.2731 87.1878C84.7153 87.1678 85.1551 87.2643 85.5483 87.4677C85.9415 87.6711 86.2743 87.9743 86.5135 88.3468V84.2733H87.2894V94.5638H86.5378L86.5038 93.5939C86.2501 93.955 85.9086 94.2455 85.5115 94.4381C85.1145 94.6307 84.6749 94.719 84.2343 94.6947C83.8402 94.7029 83.4501 94.6148 83.0978 94.4382C82.7454 94.2616 82.4414 94.0018 82.2121 93.6812C81.6609 92.8831 81.3914 91.9242 81.4459 90.9558L81.4701 90.8831ZM82.28 91.0237C82.2373 91.7942 82.432 92.5592 82.8377 93.2157C83.0079 93.4739 83.2421 93.6837 83.5174 93.8248C83.7927 93.9658 84.0998 94.0333 84.4089 94.0207C84.8518 94.0459 85.2918 93.9336 85.6685 93.6992C86.0452 93.4648 86.3404 93.1198 86.5135 92.7113V89.3167C86.3611 88.889 86.0763 88.5211 85.7004 88.2664C85.3245 88.0118 84.8771 87.8836 84.4234 87.9007C84.1141 87.8881 83.8066 87.9545 83.53 88.0937C83.2534 88.2328 83.0168 88.4401 82.8425 88.696C82.4215 89.3965 82.222 90.2079 82.2703 91.0237H82.28Z" fill="#1D1D1B"/>
    <path d="M94.3747 94.5637C94.2774 94.2345 94.2252 93.8935 94.2195 93.5502C93.9373 93.9187 93.5672 94.2105 93.143 94.3989C92.7079 94.5984 92.2347 94.701 91.756 94.6995C91.1377 94.7271 90.5322 94.5172 90.0636 94.1127C89.8565 93.9317 89.6911 93.7079 89.5789 93.4567C89.4667 93.2055 89.4104 92.933 89.4138 92.6579C89.405 92.3261 89.4816 91.9976 89.6361 91.7038C89.7906 91.41 90.018 91.1608 90.2964 90.98C91.0334 90.527 91.8913 90.3104 92.755 90.3593H94.2098V89.5349C94.2214 89.3083 94.1841 89.0819 94.1004 88.8711C94.0168 88.6602 93.8887 88.4698 93.7249 88.3128C93.3329 87.9887 92.8307 87.8288 92.3234 87.8667C91.826 87.8466 91.3366 87.9971 90.9365 88.2934C90.7685 88.4089 90.6306 88.5629 90.5344 88.7427C90.4383 88.9224 90.3865 89.1225 90.3836 89.3264H89.5786C89.5849 89.0308 89.6612 88.7409 89.8011 88.4804C89.941 88.2199 90.1407 87.9963 90.3836 87.8279C90.9513 87.3929 91.6523 87.1684 92.3671 87.1926C93.0584 87.1524 93.7403 87.3682 94.2826 87.7988C94.5185 88.0117 94.7053 88.2733 94.8301 88.5655C94.9548 88.8578 95.0146 89.1736 95.0052 89.4912V92.9295C94.9795 93.4638 95.0535 93.9983 95.2234 94.5055V94.5637H94.3747ZM91.853 93.9867C92.3649 93.9973 92.8693 93.8628 93.3079 93.5987C93.7175 93.356 94.0413 92.9915 94.2341 92.5561V90.9606H92.7793C92.1242 90.9336 91.474 91.0844 90.8977 91.3971C90.6892 91.5133 90.5161 91.6838 90.3966 91.8903C90.2771 92.0969 90.2156 92.332 90.2188 92.5706C90.2138 92.7653 90.2531 92.9586 90.3337 93.1358C90.4144 93.3131 90.5342 93.4697 90.6843 93.5939C91.0087 93.8724 91.4256 94.0194 91.853 94.0061V93.9867Z" fill="#1D1D1B"/>
    <path d="M98.2882 87.3188L98.3173 88.5603C98.5654 88.139 98.9157 87.7871 99.3357 87.537C99.7463 87.3035 100.211 87.183 100.684 87.1879C101.004 87.162 101.327 87.2073 101.628 87.3204C101.929 87.4336 102.201 87.6119 102.425 87.8425C102.845 88.4114 103.049 89.1108 103.002 89.8163V94.5639H102.202V89.8114C102.24 89.2931 102.094 88.778 101.789 88.3566C101.623 88.184 101.419 88.0509 101.195 87.967C100.97 87.8831 100.729 87.8505 100.49 87.8716C100.007 87.8721 99.5392 88.0439 99.1708 88.3566C98.7756 88.6873 98.4815 89.1226 98.3222 89.6126V94.5639H97.5269V87.2897L98.2882 87.3188Z" fill="#1D1D1B"/>
  </g>
  <defs>
    <clipPath id="clip0">
      <rect width="135.915" height="100" fill="white"/>
    </clipPath>
  </defs>
</svg>
